inDegrees=yes
name=ik_S40_A04_T02
DataType=double
version=3
OpenSimVersion=4.3-2021-08-27-4bc7ad9
endheader
time	pelvis_tilt	pelvis_list	pelvis_rotation	pelvis_tx	pelvis_ty	pelvis_tz	hip_flexion_r	hip_adduction_r	hip_rotation_r	knee_angle_r	knee_angle_r_beta	ankle_angle_r	subtalar_angle_r	mtp_angle_r	hip_flexion_l	hip_adduction_l	hip_rotation_l	knee_angle_l	knee_angle_l_beta	ankle_angle_l	subtalar_angle_l	mtp_angle_l	lumbar_extension	lumbar_bending	lumbar_rotation	arm_flex_r	arm_add_r	arm_rot_r	elbow_flex_r	pro_sup_r	wrist_flex_r	wrist_dev_r	arm_flex_l	arm_add_l	arm_rot_l	elbow_flex_l	pro_sup_l	wrist_flex_l	wrist_dev_l
0	0	0	0	0	0.9399999999999999	0	0	0	0	0	0	0	0	0	0	0	0	0	0	0	0	0	0	0	0	0	0	0	0	89.99999999963507	0	0	0	0	0	0	89.99999999869995	0	0
0.02	0.6024069452846053	0.1481386062237442	41.62569661869173	0	0.9399999999999999	0	66.82499894221749	-13.3282152542413	-4.97491499470719	67.87188501849684	1.184587863107782	0	0	0	63.80298079298542	-6.379549885927171	-9.397583431285625	62.71084846959452	1.094510782513672	0	0	0	0	0	0	3.454705835339775	-3.454705835339775	0.6355971906372907	19.48955738780549	89.36440284656392	0	0	3.454705835339775	-3.454705835339775	0.6355971906372907	19.48955738780549	89.36440284574803	0	0
0.04	0.595475747454316	0.1396174507348691	41.61996714338057	0	0.9399999999999999	0	66.83465711579323	-13.32268749828848	-4.972192347335112	67.85653492559059	1.184319953446081	0	0	0	63.82608844506468	-6.387021681156885	-9.389040275531059	62.72225978277895	1.094709947500716	0	0	0	0	0	0	28.01381562395086	-28.01381562395086	4.459877178251038	86.35087495396543	85.54012307641707	0	0	28.01381562395086	-28.01381562395086	4.459877178251038	86.35087495396543	85.54012307632796	0	0
0.06	0.6311981398423367	0.1598372243363541	41.60876220627038	0	0.9399999999999999	0	66.77834301793666	-13.31005950178961	-4.987458210605754	67.8108085342825	1.1835218773627	0	0	0	63.76949317353471	-6.392748855083801	-9.378731804779747	62.69522023936713	1.094238018439944	0	0	0	0	0	0	28.05374077438075	-28.05374077438075	4.462320535791649	86.3447631575022	85.53767971897622	0	0	28.05374077438075	-28.05374077438075	4.462320535791649	86.3447631575022	85.53767971888752	0	0
0.08	0.632840399983031	0.1673430558691757	41.63055818253297	0	0.9399999999999999	0	66.77236532948304	-13.33566293641219	-4.994343869467222	67.80061722165439	1.183344005402239	0	0	0	63.75940286021402	-6.368682001219494	-9.392920277032536	62.68992425970365	1.094145586157697	0	0	0	0	0	0	28.07739288661956	-28.07739288661956	4.463766792353562	86.34114550469802	85.53623346247331	0	0	28.07739288661956	-28.07739288661956	4.463766792353562	86.34114550469802	85.53623346238486	0	0
0.1	0.6350640571202192	0.1633646936605756	41.64508351128348	0	0.9399999999999999	0	66.76745436509165	-13.34898829840504	-5.004268505045063	67.79994896786509	1.183332342173377	0	0	0	63.75898574955385	-6.356766969318875	-9.384740148300381	62.69191348826632	1.094180304745691	0	0	0	0	0	0	28.1041252992827	-28.1041252992827	4.465385540432042	86.33709642332596	85.53461471446076	0	0	28.1041252992827	-28.1041252992827	4.465385540432042	86.33709642332596	85.53461471437258	0	0
0.12	0.6087965429595842	0.136103944174132	41.61185682879969	0	0.9399999999999999	0	66.80879952971067	-13.31051454367828	-4.993156606798253	67.78507733893163	1.183072783283353	0	0	0	63.81042899530649	-6.404912902654063	-9.403896967455946	62.69300366282084	1.094199331881089	0	0	0	0	0	0	28.16055698089068	-28.16055698089068	4.468873945212831	86.32837043908975	85.53112630982268	0	0	28.16055698089068	-28.16055698089068	4.468873945212831	86.32837043908975	85.53112630973509	0	0
0.14	0.6298318161202335	0.150777680915796	41.6269187062596	0	0.9399999999999999	0	66.77237792867601	-13.32154056083959	-4.988343673497665	67.78139322802295	1.183008483417988	0	0	0	63.78720912384352	-6.390740518542247	-9.397518338593031	62.69318738037262	1.094202538357261	0	0	0	0	0	0	28.18698960539752	-28.18698960539752	4.470487561681108	86.32433415457878	85.52951269342026	0	0	28.18698960539752	-28.18698960539752	4.470487561681108	86.32433415457878	85.52951269333289	0	0
0.16	0.6435005191581686	0.1569486055095552	41.63016376123976	0	0.9399999999999999	0	66.74948916555302	-13.32488761057865	-5.000103544613635	67.77103053011514	1.182827620220107	0	0	0	63.76085706412125	-6.404928614957919	-9.393475795257986	62.68742519622885	1.094101969271846	0	0	0	0	0	0	28.21463152000448	-28.21463152000448	4.472168005773715	86.32013072788455	85.52783224939613	0	0	28.21463152000448	-28.21463152000448	4.472168005773715	86.32013072788455	85.52783224930906	0	0
0.18	0.6447535463501975	0.1595787697809941	41.64999124164575	0	0.9399999999999999	0	66.74459203913391	-13.34502043897762	-5.007547117471368	67.771517395239	1.182836117619532	0	0	0	63.75730850091414	-6.389214967711395	-9.381938656270261	62.68732207100142	1.094100169397085	0	0	0	0	0	0	28.24142318528173	-28.24142318528173	4.473785928975829	86.31608371473422	85.5262143262598	0	0	28.24142318528173	-28.24142318528173	4.473785928975829	86.31608371473422	85.526214326173	0	0
0.2	0.6563848350512478	0.1590642124233818	41.64820168705015	0	0.9399999999999999	0	66.74232058672827	-13.34065242322783	-5.010624623625166	67.77816065010552	1.182952064290002	0	0	0	63.7615982095603	-6.38593058800031	-9.402339645995253	62.69212270219764	1.094183956217633	0	0	0	0	0	0	28.25910145958279	-28.25910145958279	4.47486042969626	86.31339598101238	85.52513982558317	0	0	28.25910145958279	-28.25910145958279	4.47486042969626	86.31339598101238	85.52513982549657	0	0
